<svg xmlns="http://www.w3.org/2000/svg" width="415" height="138.142" viewBox="0 0 415 138.142">
  <g id="Groupe_149" data-name="Groupe 149" transform="translate(-694 -648.858)">
    <path id="Tracé_534" data-name="Tracé 534" transform="translate(722.5 751.5)" fill="#707070"/>
    <path id="Tracé_535" data-name="Tracé 535" d="M14,12a2.4,2.4,0,0,0-2,2.62V123.227a2.4,2.4,0,0,0,2,2.62H401a2.4,2.4,0,0,0,2-2.62V14.62A2.4,2.4,0,0,0,401,12H14M14,0H401c7.732,0,14,6.546,14,14.62V123.227c0,8.075-6.268,14.62-14,14.62H14c-7.732,0-14-6.546-14-14.62V14.62C0,6.546,6.268,0,14,0Z" transform="translate(694 648.858)" fill="#4cade6"/>
    <rect id="Rectangle_471" data-name="Rectangle 471" width="188" height="13" transform="translate(812 774)" fill="#fff"/>
    <path id="Tracé_536" data-name="Tracé 536" d="M17.765-32.385V-49.64H27.2c6.715,0,9.69,3.23,9.69,8.67,0,5.27-2.975,8.585-9.69,8.585ZM49.13-40.97c0-10.285-7.14-18.36-21.42-18.36H5.865V0h11.9V-22.78H27.71C43.01-22.78,49.13-31.96,49.13-40.97ZM57.545,0h11.9V-59.33h-11.9Z" transform="translate(718 745)" fill="#4cade6"/>
    <rect id="Rectangle_466" data-name="Rectangle 466" width="30" height="6" rx="1" transform="translate(846 686) rotate(90)" fill="#4cade6"/>
    <rect id="Rectangle_467" data-name="Rectangle 467" width="31" height="6" rx="1" transform="translate(814 686) rotate(90)" fill="#4cade6"/>
    <path id="Rectangle_468" data-name="Rectangle 468" d="M3,0H53a3,3,0,0,1,3,3V19A10,10,0,0,1,46,29H10A10,10,0,0,1,0,19V3A3,3,0,0,1,3,0Z" transform="translate(800 716)" fill="#4cade6"/>
    <rect id="Rectangle_470" data-name="Rectangle 470" width="64" height="4" rx="1" transform="translate(796 714)" fill="#4cade6"/>
    <text id="er" transform="translate(996 744)" fill="#4cade6" font-size="85" font-family="Poppins-SemiBold, Poppins" font-weight="600"><tspan x="0" y="0">er</tspan></text>
    <g id="Groupe_142" data-name="Groupe 142" transform="translate(7 148)">
      <g id="Groupe_143" data-name="Groupe 143" transform="translate(0 -3.403)">
        <path id="Tracé_529" data-name="Tracé 529" d="M5.008-20.049c0,16.938,10.966,28.2,24.771,28.2A21.393,21.393,0,0,0,47.7-.762V17.657c0,10.084-5.874,14.392-13.413,14.392H-11.7V43.994H34.674c17.819,0,26.827-11.651,26.827-26.337V-46.974H47.7v7.735c-3.231-4.7-9.4-8.616-17.917-8.616C15.973-47.855,5.008-36.987,5.008-20.049Zm42.688.2C47.7-9.573,40.842-3.895,33.3-3.895c-7.343,0-14.294-5.874-14.294-16.155S25.96-35.812,33.3-35.812C40.842-35.812,47.7-30.134,47.7-19.854Z" transform="translate(856.23 598.115)" fill="#4cade6"/>
        <path id="Tracé_530" data-name="Tracé 530" d="M25.679,28.336c0,9.03-5.971,12.887-12.95,12.887H-6.982v10.7H13.091c16.5,0,24.834-10.432,24.834-23.583V0H26.851Z" transform="translate(866.919 604.184) rotate(90)" fill="#4cade6"/>
        <path id="Tracé_532" data-name="Tracé 532" d="M0,58.24c0,10.129,11.951,14.751,11.951,0V0H0Z" transform="translate(930.554 630.158) rotate(90)" fill="#4cade6"/>
        <path id="Tracé_533" data-name="Tracé 533" d="M5.008-20.049c0,16.938,10.966,28.2,24.771,28.2A21.393,21.393,0,0,0,47.7-.762V17.657c0,10.084-5.874,14.392-13.413,14.392H-11.7V43.994H34.674c17.819,0,26.827-11.651,26.827-26.337V-46.974H47.7v7.735c-3.231-4.7-9.4-8.616-17.917-8.616C15.973-47.855,5.008-36.987,5.008-20.049Zm42.688.2C47.7-9.573,40.842-3.895,33.3-3.895c-7.343,0-14.294-5.874-14.294-16.155S25.96-35.812,33.3-35.812C40.842-35.812,47.7-30.134,47.7-19.854Z" transform="translate(921.605 598.115)" fill="#4cade6"/>
      </g>
    </g>
  </g>
</svg>
